<svg xmlns="http://www.w3.org/2000/svg" xmlns:xlink="http://www.w3.org/1999/xlink" width="153.216" height="57.48" viewBox="0 0 153.216 57.48">
  <defs>
    <clipPath id="clip-path">
      <path id="Path_3356" data-name="Path 3356" d="M60.229,128.728a4.873,4.873,0,0,0-.136,1.144c0,.991-.35,1.283-.423,1.333-.109.039-.215.081-.318.13q.06.227.139.445a3.463,3.463,0,0,1,.355-.146.21.21,0,0,0,.037-.017c.158-.088.673-.475.673-1.745a4.409,4.409,0,0,1,.123-1.035.231.231,0,1,0-.45-.109" transform="translate(-59.352 -128.551)" fill="#2dced6"/>
    </clipPath>
    <clipPath id="clip-path-2">
      <path id="Path_3358" data-name="Path 3358" d="M74.059,156.041a2.766,2.766,0,0,1-1.567,2.488,2.017,2.017,0,0,0-.329.138c.088.13.181.256.279.378a1.538,1.538,0,0,1,.2-.077,3.231,3.231,0,0,0,1.881-2.878.231.231,0,0,0-.205-.254h-.026a.231.231,0,0,0-.229.207" transform="translate(-72.163 -155.834)" fill="#2dced6"/>
    </clipPath>
    <clipPath id="clip-path-3">
      <path id="Path_3360" data-name="Path 3360" d="M83.752,191.583a3.214,3.214,0,0,1-1.529,1.272l-.06.021c.117.123.241.241.37.354a3.794,3.794,0,0,0,1.605-1.392.231.231,0,0,0-.387-.254" transform="translate(-82.163 -191.479)" fill="#2dced6"/>
    </clipPath>
    <clipPath id="clip-path-4">
      <path id="Path_3362" data-name="Path 3362" d="M68.772,88.917a3.917,3.917,0,0,0-2.764,3.756c0,1.708-.861,2.134-.987,2.187a2.884,2.884,0,0,0-.418.176q.1.211.209.412a2.467,2.467,0,0,1,.362-.152l.014-.006c.214-.086,1.283-.619,1.283-2.618a3.456,3.456,0,0,1,2.439-3.314.231.231,0,0,0-.069-.452.229.229,0,0,0-.069.011" transform="translate(-64.603 -88.906)" fill="#2dced6"/>
    </clipPath>
    <clipPath id="clip-path-5">
      <path id="Path_3364" data-name="Path 3364" d="M97.458,163.846a5.833,5.833,0,0,1-.245,1.027,4.457,4.457,0,0,1-2.17,2.579c.141.1.287.2.437.285a4.954,4.954,0,0,0,2.172-2.715,6.285,6.285,0,0,0,.265-1.11.231.231,0,0,0-.2-.262l-.034,0a.232.232,0,0,0-.228.2" transform="translate(-95.043 -163.648)" fill="#2dced6"/>
    </clipPath>
    <clipPath id="clip-path-6">
      <path id="Path_3366" data-name="Path 3366" d="M112.239,146.439a6.083,6.083,0,0,1-1.761,4.587,5.289,5.289,0,0,1-.746.6c.165.078.334.148.507.21a5.832,5.832,0,0,0,.542-.457,6.534,6.534,0,0,0,1.921-4.937.231.231,0,0,0-.463,0" transform="translate(-109.732 -146.208)" fill="#2dced6"/>
    </clipPath>
    <clipPath id="clip-path-7">
      <path id="Path_3368" data-name="Path 3368" d="M128.454,200.163a6.332,6.332,0,0,1-1.431,2.046c-.107.1-.215.2-.321.285a5.591,5.591,0,0,0,.572.114l.068-.064a6.787,6.787,0,0,0,1.535-2.194.231.231,0,0,0-.423-.187" transform="translate(-126.703 -200.025)" fill="#2dced6"/>
    </clipPath>
    <clipPath id="clip-path-8">
      <path id="Path_3370" data-name="Path 3370" d="M116.092,118.289a5.629,5.629,0,0,1-.207,1.565.232.232,0,0,0,.158.287.235.235,0,0,0,.065.009.232.232,0,0,0,.222-.167,6.1,6.1,0,0,0,.225-1.694,1.621,1.621,0,0,1,1.619-1.619,1.6,1.6,0,0,1,.629.127.232.232,0,0,0,.181-.426,2.083,2.083,0,0,0-2.892,1.919" transform="translate(-115.876 -116.207)" fill="#2dced6"/>
    </clipPath>
    <clipPath id="clip-path-9">
      <path id="Path_3372" data-name="Path 3372" d="M135.373,132.365a.231.231,0,1,0,.463,0,.694.694,0,1,1,1.388,0,8.638,8.638,0,0,1-.238,2.058.231.231,0,0,0,.169.28.213.213,0,0,0,.056.007.231.231,0,0,0,.224-.176,9.092,9.092,0,0,0,.251-2.169,1.157,1.157,0,0,0-2.314,0" transform="translate(-135.373 -131.208)" fill="#2dced6"/>
    </clipPath>
    <clipPath id="clip-path-10">
      <path id="Path_3374" data-name="Path 3374" d="M146.873,132.95a.231.231,0,0,0-.1.31,1.6,1.6,0,0,1,.167.717A7.958,7.958,0,0,1,144.8,139.7c.1,0,.194.007.292.007s.225,0,.336-.01a8.51,8.51,0,0,0,1.967-5.722,2.067,2.067,0,0,0-.215-.922.232.232,0,0,0-.31-.1" transform="translate(-144.803 -132.926)" fill="#2dced6"/>
    </clipPath>
    <clipPath id="clip-path-11">
      <path id="Path_3376" data-name="Path 3376" d="M165.721,202.426a8.294,8.294,0,0,1-1.229,2.277,5.514,5.514,0,0,0,.678-.152,8.814,8.814,0,0,0,.987-1.97.231.231,0,0,0-.141-.3.228.228,0,0,0-.077-.013.233.233,0,0,0-.219.154" transform="translate(-164.492 -202.272)" fill="#2dced6"/>
    </clipPath>
    <clipPath id="clip-path-12">
      <path id="Path_3378" data-name="Path 3378" d="M104.179,103.648a.231.231,0,1,0,.454.088,2.545,2.545,0,0,1,5.045.48,11.188,11.188,0,0,1-.089,1.42.231.231,0,0,0,.2.259l.03,0a.232.232,0,0,0,.229-.2,11.668,11.668,0,0,0,.093-1.479,3.008,3.008,0,0,0-5.961-.568" transform="translate(-104.175 -101.208)" fill="#2dced6"/>
    </clipPath>
    <clipPath id="clip-path-13">
      <path id="Path_3380" data-name="Path 3380" d="M156.64,87.117a.232.232,0,0,0,.193.265,3.494,3.494,0,0,1,2.934,3.429,10.28,10.28,0,0,1-1.346,5.288,5.672,5.672,0,0,0,.723-.365,10.949,10.949,0,0,0,1.086-4.923,3.938,3.938,0,0,0-3.326-3.886l-.036,0a.231.231,0,0,0-.228.2" transform="translate(-156.637 -86.922)" fill="#2dced6"/>
    </clipPath>
    <clipPath id="clip-path-14">
      <path id="Path_3382" data-name="Path 3382" d="M85.172,73.263a.231.231,0,1,0,.378.268,4.392,4.392,0,0,1,7.29.165.232.232,0,0,0,.195.106.229.229,0,0,0,.125-.037.231.231,0,0,0,.069-.32,4.855,4.855,0,0,0-8.057-.183" transform="translate(-85.13 -71.207)" fill="#2dced6"/>
    </clipPath>
    <clipPath id="clip-path-15">
      <path id="Path_3384" data-name="Path 3384" d="M61.948,56.208a5.76,5.76,0,0,0-5.658,6.761l.052-.022a.23.23,0,0,0,.119-.107,1.839,1.839,0,0,0,.153-.848,5.321,5.321,0,0,1,10.642,0,13.483,13.483,0,0,1-.286,2.816,5.734,5.734,0,0,0,.749-2.829v-.013a5.757,5.757,0,0,0-5.634-5.756l-.124,0Z" transform="translate(-56.202 -56.208)" fill="#2dced6"/>
    </clipPath>
    <clipPath id="clip-path-16">
      <path id="Path_3386" data-name="Path 3386" d="M208.659,146.439a11.668,11.668,0,0,1-.836,4.472,5.784,5.784,0,0,0,.752-.723,12.5,12.5,0,0,0,.547-3.749.231.231,0,0,0-.463,0" transform="translate(-207.823 -146.208)" fill="#2dced6"/>
    </clipPath>
  </defs>
  <g id="Group_533" data-name="Group 533" transform="translate(-434 2164.246)">
    <g id="Group_700" data-name="Group 700" transform="translate(434 -2164.246)">
      <path id="Path_3342" data-name="Path 3342" d="M538-2411.333h4.661v16.364l10.116,7.141a2.478,2.478,0,0,0,2.851,0c1.339-1.067,10.19-7.141,10.19-7.141v-16.364h4.612v18.942l-14.8,10.413a3.67,3.67,0,0,1-2.851,0L538-2392.391Z" transform="translate(-538 2425.953)" fill="#242c64"/>
      <path id="Path_3344" data-name="Path 3344" d="M538-2419.219l4.567,3.244v5.98l3.5,2.469a1.352,1.352,0,0,0,1.556,0c.731-.582,3.453-2.469,3.453-2.469v-6.248l4.626-3.184v11.544l-8.08,5.684a2,2,0,0,1-1.556,0L538-2407.883Z" transform="translate(-530.488 2459.535)" fill="#2dced6"/>
      <path id="Subtraction_5" data-name="Subtraction 5" d="M4.388,19.761h0L0,16.62V0A1.611,1.611,0,0,0,.715,1.178a6.352,6.352,0,0,0,1.9.961,20.025,20.025,0,0,0,6.235.885,20.024,20.024,0,0,0,6.235-.885,6.352,6.352,0,0,0,1.9-.961A1.61,1.61,0,0,0,17.7,0V16.62l-4.76,3.14V6.051H4.388V19.76Z" transform="translate(7.587 14.62)" fill="#242c64"/>
      <g id="Group_525" data-name="Group 525" transform="translate(7.746 12.283)">
        <path id="Subtraction_7" data-name="Subtraction 7" d="M8.623,4.155a19.453,19.453,0,0,1-6.1-.87A6.1,6.1,0,0,1,.678,2.341,1.536,1.536,0,0,1,0,1.184,1.562,1.562,0,0,1,.712,0,1.2,1.2,0,0,0,.421.75a1.462,1.462,0,0,0,.645,1.1,5.8,5.8,0,0,0,1.758.9,18.5,18.5,0,0,0,5.8.828,18.5,18.5,0,0,0,5.8-.828,5.8,5.8,0,0,0,1.758-.9,1.462,1.462,0,0,0,.645-1.1A1.2,1.2,0,0,0,16.534,0a1.562,1.562,0,0,1,.712,1.184,1.536,1.536,0,0,1-.678,1.156,6.1,6.1,0,0,1-1.848.944A19.453,19.453,0,0,1,8.623,4.155Z" transform="translate(0 0)" fill="#242c64"/>
      </g>
      <g id="Ellipse_24" data-name="Ellipse 24" transform="translate(8.777 0)" fill="none" stroke="#2dced6" stroke-width="0.5" stroke-dasharray="2">
        <circle cx="7.438" cy="7.438" r="7.438" stroke="none"/>
        <circle cx="7.438" cy="7.438" r="7.188" fill="none"/>
      </g>
      <g id="Group_696" data-name="Group 696" transform="translate(10.459 1.683)">
        <g id="Group_552" data-name="Group 552" transform="translate(0.194 4.463)">
          <g id="Group_551" data-name="Group 551" clip-path="url(#clip-path)">
            <rect id="Rectangle_69" data-name="Rectangle 69" width="1.357" height="3.228" transform="translate(0 0)" fill="#2dced6"/>
          </g>
        </g>
        <g id="Group_561" data-name="Group 561" transform="translate(0.985 6.146)">
          <g id="Group_560" data-name="Group 560" clip-path="url(#clip-path-2)">
            <rect id="Rectangle_73" data-name="Rectangle 73" width="2.37" height="3.211" transform="translate(0 0)" fill="#2dced6"/>
          </g>
        </g>
        <g id="Group_570" data-name="Group 570" transform="translate(1.601 8.345)">
          <g id="Group_569" data-name="Group 569" clip-path="url(#clip-path-3)">
            <rect id="Rectangle_77" data-name="Rectangle 77" width="2.046" height="1.751" fill="#2dced6"/>
          </g>
        </g>
        <g id="Group_579" data-name="Group 579" transform="translate(0.518 2.017)">
          <g id="Group_578" data-name="Group 578" clip-path="url(#clip-path-4)">
            <rect id="Rectangle_81" data-name="Rectangle 81" width="4.497" height="6.542" transform="translate(0 0)" fill="#2dced6"/>
          </g>
        </g>
        <g id="Group_588" data-name="Group 588" transform="translate(2.396 6.628)">
          <g id="Group_587" data-name="Group 587" clip-path="url(#clip-path-5)">
            <rect id="Rectangle_85" data-name="Rectangle 85" width="2.892" height="4.09" transform="translate(0 0)" fill="#2dced6"/>
          </g>
        </g>
        <g id="Group_597" data-name="Group 597" transform="translate(3.302 5.552)">
          <g id="Group_596" data-name="Group 596" clip-path="url(#clip-path-6)">
            <rect id="Rectangle_89" data-name="Rectangle 89" width="2.97" height="5.625" transform="translate(0 0)" fill="#2dced6"/>
          </g>
        </g>
        <g id="Group_606" data-name="Group 606" transform="translate(4.349 8.873)">
          <g id="Group_605" data-name="Group 605" clip-path="url(#clip-path-7)">
            <rect id="Rectangle_93" data-name="Rectangle 93" width="2.227" height="2.583" transform="translate(0)" fill="#2dced6"/>
          </g>
        </g>
        <g id="Group_615" data-name="Group 615" transform="translate(3.681 3.702)">
          <g id="Group_614" data-name="Group 614" clip-path="url(#clip-path-8)">
            <rect id="Rectangle_97" data-name="Rectangle 97" width="3.306" height="3.943" transform="translate(-0.026)" fill="#2dced6"/>
          </g>
        </g>
        <g id="Group_624" data-name="Group 624" transform="translate(4.884 4.627)">
          <g id="Group_623" data-name="Group 623" clip-path="url(#clip-path-9)">
            <rect id="Rectangle_101" data-name="Rectangle 101" width="2.314" height="3.501" transform="translate(0 0)" fill="#2dced6"/>
          </g>
        </g>
        <g id="Group_633" data-name="Group 633" transform="translate(5.466 4.733)">
          <g id="Group_632" data-name="Group 632" clip-path="url(#clip-path-10)">
            <rect id="Rectangle_105" data-name="Rectangle 105" width="2.595" height="6.783" transform="translate(0 0)" fill="#2dced6"/>
          </g>
        </g>
        <g id="Group_642" data-name="Group 642" transform="translate(6.681 9.011)">
          <g id="Group_641" data-name="Group 641" clip-path="url(#clip-path-11)">
            <rect id="Rectangle_109" data-name="Rectangle 109" width="1.708" height="2.43" transform="translate(0)" fill="#2dced6"/>
          </g>
        </g>
        <g id="Group_651" data-name="Group 651" transform="translate(2.959 2.776)">
          <g id="Group_650" data-name="Group 650" clip-path="url(#clip-path-12)">
            <rect id="Rectangle_113" data-name="Rectangle 113" width="5.986" height="4.688" transform="translate(-0.02 0)" fill="#2dced6"/>
          </g>
        </g>
        <g id="Group_660" data-name="Group 660" transform="translate(6.196 1.895)">
          <g id="Group_659" data-name="Group 659" clip-path="url(#clip-path-13)">
            <rect id="Rectangle_117" data-name="Rectangle 117" width="3.61" height="9.177" transform="translate(-0.017 0)" fill="#2dced6"/>
          </g>
        </g>
        <g id="Group_669" data-name="Group 669" transform="translate(1.785 0.925)">
          <g id="Group_668" data-name="Group 668" clip-path="url(#clip-path-14)">
            <rect id="Rectangle_121" data-name="Rectangle 121" width="8.2" height="2.595" transform="translate(-0.031 0)" fill="#2dced6"/>
          </g>
        </g>
        <g id="Group_678" data-name="Group 678" transform="translate(0 0)">
          <g id="Group_677" data-name="Group 677" clip-path="url(#clip-path-15)">
            <rect id="Rectangle_125" data-name="Rectangle 125" width="11.516" height="8.599" transform="translate(0 0)" fill="#2dced6"/>
          </g>
        </g>
        <g id="Group_687" data-name="Group 687" transform="translate(9.354 5.552)">
          <g id="Group_686" data-name="Group 686" clip-path="url(#clip-path-16)">
            <rect id="Rectangle_129" data-name="Rectangle 129" width="1.299" height="4.703" fill="#2dced6"/>
          </g>
        </g>
      </g>
    </g>
    <g id="Group_538" data-name="Group 538" transform="translate(475.683 -2143.5)">
      <path id="Path_3347" data-name="Path 3347" d="M12.824-70.958H9.616L5.843-64.683,2.07-70.958H-1.4l5.468,9.079v5.044H7.336v-5ZM20.43-56.593c4.439,0,7.727-3.087,7.727-7.3s-3.289-7.3-7.727-7.3c-4.459,0-7.727,3.107-7.727,7.3S15.971-56.593,20.43-56.593Zm0-2.784A4.308,4.308,0,0,1,16.012-63.9a4.308,4.308,0,0,1,4.419-4.519A4.308,4.308,0,0,1,24.849-63.9,4.308,4.308,0,0,1,20.43-59.377Zm16.464,2.784c4.015,0,6.4-2.3,6.4-6.456v-7.909H40.062v7.788c0,2.683-1.15,3.793-3.147,3.793-1.977,0-3.147-1.11-3.147-3.793v-7.788H30.5v7.909C30.5-58.893,32.879-56.593,36.894-56.593Zm22.133-.242-3.168-4.54a4.592,4.592,0,0,0,2.905-4.459c0-3.168-2.361-5.125-6.133-5.125H46.518v14.123h3.268v-3.934h3.006l2.724,3.934Zm-3.571-9c0,1.533-1.009,2.461-3.006,2.461H49.786v-4.923H52.45C54.447-68.295,55.456-67.387,55.456-65.833Z" transform="translate(1.4 71.2)" fill="#242c64"/>
      <path id="Path_3348" data-name="Path 3348" d="M12.2-56.276h1.029V-70.4H12.2ZM28.623-70.4v12.267L19.019-70.4h-.868v14.123h1.029V-68.543L28.8-56.276h.847V-70.4Zm15.394.928V-70.4H34.575v14.123H35.6V-62.51H43.13v-.928H35.6v-6.033Zm9.1,13.3a7.071,7.071,0,0,0,7.344-7.162A7.071,7.071,0,0,0,53.117-70.5a7.071,7.071,0,0,0-7.344,7.162A7.071,7.071,0,0,0,53.117-56.175Zm0-.948A6.1,6.1,0,0,1,46.8-63.338a6.1,6.1,0,0,1,6.315-6.214,6.1,6.1,0,0,1,6.295,6.214A6.1,6.1,0,0,1,53.117-57.123Z" transform="translate(51.072 70.641)" fill="#2dced6"/>
    </g>
  </g>
</svg>
